<mxfile host="2b524420-e603-413e-a928-421b07f1611d" modified="2020-09-16T00:13:49.823Z" agent="5.0 (Macintosh; Intel Mac OS X 10_15_6) AppleWebKit/537.36 (KHTML, like Gecko) Code/1.48.2 Chrome/78.0.3904.130 Electron/7.3.2 Safari/537.36" etag="bQZqCG0uj2MvuBjVWjjN" version="13.1.3" pages="4">
    <diagram id="6hGFLwfOUW9BJ-s0fimq" name="Page-1">
        <mxGraphModel dx="981" dy="426" grid="1" gridSize="10" guides="1" tooltips="1" connect="1" arrows="1" fold="1" page="1" pageScale="1" pageWidth="827" pageHeight="1169" math="0" shadow="0">
            <root>
                <mxCell id="0"/>
                <mxCell id="1" parent="0"/>
                <mxCell id="2" value="" style="shape=ext;double=1;rounded=0;whiteSpace=wrap;html=1;" parent="1" vertex="1">
                    <mxGeometry x="100" y="10" width="660" height="480" as="geometry"/>
                </mxCell>
                <mxCell id="4" value="" style="shape=ext;double=1;rounded=0;whiteSpace=wrap;html=1;" parent="1" vertex="1">
                    <mxGeometry x="355" y="120" width="185" height="170" as="geometry"/>
                </mxCell>
                <mxCell id="5" value="Title" style="text;strokeColor=none;fillColor=none;html=1;fontSize=24;fontStyle=1;verticalAlign=middle;align=center;" parent="1" vertex="1">
                    <mxGeometry x="380" y="50" width="100" height="40" as="geometry"/>
                </mxCell>
                <mxCell id="6" value="RECTANGLE" style="html=1;whiteSpace=wrap;comic=1;strokeWidth=2;fontFamily=Comic Sans MS;fontStyle=1;" parent="1" vertex="1">
                    <mxGeometry x="410" y="150" width="60" height="20" as="geometry"/>
                </mxCell>
                <mxCell id="7" value="RECTANGLE" style="html=1;whiteSpace=wrap;comic=1;strokeWidth=2;fontFamily=Comic Sans MS;fontStyle=1;" parent="1" vertex="1">
                    <mxGeometry x="410" y="195" width="60" height="20" as="geometry"/>
                </mxCell>
            </root>
        </mxGraphModel>
    </diagram>
    <diagram id="v9WrTkBdqxvhWNDG4WbK" name="Page-2">
        &#xa;        
        <mxGraphModel dx="890" dy="585" grid="1" gridSize="10" guides="1" tooltips="1" connect="1" arrows="1" fold="1" page="1" pageScale="1" pageWidth="850" pageHeight="1100" math="0" shadow="0">
            &#xa;            
            <root>
                &#xa;                
                <mxCell id="vKcebhX2lkdC8k_YOgI3-0"/>
                &#xa;                
                <mxCell id="vKcebhX2lkdC8k_YOgI3-1" parent="vKcebhX2lkdC8k_YOgI3-0"/>
                &#xa;                
                <mxCell id="vKcebhX2lkdC8k_YOgI3-2" value="" style="shape=ext;double=1;rounded=0;whiteSpace=wrap;html=1;" parent="vKcebhX2lkdC8k_YOgI3-1" vertex="1">
                    &#xa;                    
                    <mxGeometry x="150" y="30" width="600" height="530" as="geometry"/>
                    &#xa;                
                </mxCell>
                &#xa;                
                <mxCell id="vKcebhX2lkdC8k_YOgI3-3" value="" style="shape=ext;double=1;rounded=0;whiteSpace=wrap;html=1;" parent="vKcebhX2lkdC8k_YOgI3-1" vertex="1">
                    &#xa;                    
                    <mxGeometry x="204" y="110" width="480" height="200" as="geometry"/>
                    &#xa;                
                </mxCell>
                &#xa;                
                <mxCell id="vKcebhX2lkdC8k_YOgI3-4" value="input room area" style="shape=ext;double=1;rounded=0;whiteSpace=wrap;html=1;" parent="vKcebhX2lkdC8k_YOgI3-1" vertex="1">
                    &#xa;                    
                    <mxGeometry x="204" y="65" width="360" height="30" as="geometry"/>
                    &#xa;                
                </mxCell>
                &#xa;                
                <mxCell id="vKcebhX2lkdC8k_YOgI3-5" value="Theme" style="html=1;whiteSpace=wrap;comic=1;strokeWidth=2;fontFamily=Comic Sans MS;fontStyle=1;" parent="vKcebhX2lkdC8k_YOgI3-1" vertex="1">
                    &#xa;                    
                    <mxGeometry x="220" y="330" width="90" height="20" as="geometry"/>
                    &#xa;                
                </mxCell>
                &#xa;                
                <mxCell id="vKcebhX2lkdC8k_YOgI3-6" value="Mode" style="html=1;whiteSpace=wrap;comic=1;strokeWidth=2;fontFamily=Comic Sans MS;fontStyle=1;" parent="vKcebhX2lkdC8k_YOgI3-1" vertex="1">
                    &#xa;                    
                    <mxGeometry x="330" y="330" width="90" height="20" as="geometry"/>
                    &#xa;                
                </mxCell>
                &#xa;                
                <mxCell id="vKcebhX2lkdC8k_YOgI3-7" value="Option 3" style="html=1;whiteSpace=wrap;comic=1;strokeWidth=2;fontFamily=Comic Sans MS;fontStyle=1;" parent="vKcebhX2lkdC8k_YOgI3-1" vertex="1">
                    &#xa;                    
                    <mxGeometry x="440" y="330" width="90" height="20" as="geometry"/>
                    &#xa;                
                </mxCell>
                &#xa;                
                <mxCell id="vKcebhX2lkdC8k_YOgI3-8" value="Option 4&amp;nbsp;" style="html=1;whiteSpace=wrap;comic=1;strokeWidth=2;fontFamily=Comic Sans MS;fontStyle=1;" parent="vKcebhX2lkdC8k_YOgI3-1" vertex="1">
                    &#xa;                    
                    <mxGeometry x="550" y="330" width="90" height="20" as="geometry"/>
                    &#xa;                
                </mxCell>
                &#xa;                
                <mxCell id="vKcebhX2lkdC8k_YOgI3-9" style="edgeStyle=orthogonalEdgeStyle;rounded=0;orthogonalLoop=1;jettySize=auto;html=1;exitX=0.75;exitY=1;exitDx=0;exitDy=0;entryX=0.756;entryY=0.5;entryDx=0;entryDy=0;entryPerimeter=0;" parent="vKcebhX2lkdC8k_YOgI3-1" source="vKcebhX2lkdC8k_YOgI3-5" target="vKcebhX2lkdC8k_YOgI3-5" edge="1">
                    &#xa;                    
                    <mxGeometry relative="1" as="geometry"/>
                    &#xa;                
                </mxCell>
                &#xa;                
                <mxCell id="vKcebhX2lkdC8k_YOgI3-11" value="" style="shape=ext;double=1;rounded=0;whiteSpace=wrap;html=1;" parent="vKcebhX2lkdC8k_YOgI3-1" vertex="1">
                    &#xa;                    
                    <mxGeometry x="234" y="430" width="432" height="100" as="geometry"/>
                    &#xa;                
                </mxCell>
                &#xa;                
                <mxCell id="vKcebhX2lkdC8k_YOgI3-12" value="" style="line;strokeWidth=2;direction=south;html=1;" parent="vKcebhX2lkdC8k_YOgI3-1" vertex="1">
                    &#xa;                    
                    <mxGeometry x="440" y="110" width="10" height="200" as="geometry"/>
                    &#xa;                
                </mxCell>
                &#xa;                
                <mxCell id="vKcebhX2lkdC8k_YOgI3-13" value="Join" style="html=1;whiteSpace=wrap;comic=1;strokeWidth=2;fontFamily=Comic Sans MS;fontStyle=1;" parent="vKcebhX2lkdC8k_YOgI3-1" vertex="1">
                    &#xa;                    
                    <mxGeometry x="574" y="65" width="110" height="25" as="geometry"/>
                    &#xa;                
                </mxCell>
                &#xa;                
                <mxCell id="aUpvQlHfbWTXcOA6-Us9-0" value="Option 3" style="html=1;whiteSpace=wrap;comic=1;strokeWidth=2;fontFamily=Comic Sans MS;fontStyle=1;" parent="vKcebhX2lkdC8k_YOgI3-1" vertex="1">
                    &#xa;                    
                    <mxGeometry x="220" y="380" width="90" height="20" as="geometry"/>
                    &#xa;                
                </mxCell>
                &#xa;                
                <mxCell id="aUpvQlHfbWTXcOA6-Us9-1" value="Option 3" style="html=1;whiteSpace=wrap;comic=1;strokeWidth=2;fontFamily=Comic Sans MS;fontStyle=1;" parent="vKcebhX2lkdC8k_YOgI3-1" vertex="1">
                    &#xa;                    
                    <mxGeometry x="335" y="380" width="90" height="20" as="geometry"/>
                    &#xa;                
                </mxCell>
                &#xa;                
                <mxCell id="aUpvQlHfbWTXcOA6-Us9-2" value="Option 3" style="html=1;whiteSpace=wrap;comic=1;strokeWidth=2;fontFamily=Comic Sans MS;fontStyle=1;" parent="vKcebhX2lkdC8k_YOgI3-1" vertex="1">
                    &#xa;                    
                    <mxGeometry x="450" y="380" width="90" height="20" as="geometry"/>
                    &#xa;                
                </mxCell>
                &#xa;                
                <mxCell id="aUpvQlHfbWTXcOA6-Us9-3" value="Option 4&amp;nbsp;" style="html=1;whiteSpace=wrap;comic=1;strokeWidth=2;fontFamily=Comic Sans MS;fontStyle=1;" parent="vKcebhX2lkdC8k_YOgI3-1" vertex="1">
                    &#xa;                    
                    <mxGeometry x="560" y="380" width="90" height="20" as="geometry"/>
                    &#xa;                
                </mxCell>
                &#xa;            
            </root>
            &#xa;        
        </mxGraphModel>
        &#xa;    
    </diagram>
    <diagram id="imPrI4yX5UHBegcheSQ6" name="Page-3">
        <mxGraphModel dx="981" dy="426" grid="1" gridSize="10" guides="1" tooltips="1" connect="1" arrows="1" fold="1" page="1" pageScale="1" pageWidth="850" pageHeight="1100" math="0" shadow="0">
            <root>
                <mxCell id="iGHPzRNiUI1LMutDav6r-0"/>
                <mxCell id="iGHPzRNiUI1LMutDav6r-1" parent="iGHPzRNiUI1LMutDav6r-0"/>
                <mxCell id="iGHPzRNiUI1LMutDav6r-2" value="" style="shape=ext;double=1;rounded=0;whiteSpace=wrap;html=1;" parent="iGHPzRNiUI1LMutDav6r-1" vertex="1">
                    <mxGeometry x="100" y="20" width="610" height="480" as="geometry"/>
                </mxCell>
                <mxCell id="iGHPzRNiUI1LMutDav6r-3" value="" style="shape=ext;double=1;rounded=0;whiteSpace=wrap;html=1;" parent="iGHPzRNiUI1LMutDav6r-1" vertex="1">
                    <mxGeometry x="130" y="60" width="260" height="380" as="geometry"/>
                </mxCell>
                <mxCell id="iGHPzRNiUI1LMutDav6r-4" value="" style="shape=ext;double=1;rounded=0;whiteSpace=wrap;html=1;" parent="iGHPzRNiUI1LMutDav6r-1" vertex="1">
                    <mxGeometry x="410" y="70" width="120" height="80" as="geometry"/>
                </mxCell>
                <mxCell id="iGHPzRNiUI1LMutDav6r-5" value="" style="shape=ext;double=1;rounded=0;whiteSpace=wrap;html=1;" parent="iGHPzRNiUI1LMutDav6r-1" vertex="1">
                    <mxGeometry x="410" y="180" width="120" height="80" as="geometry"/>
                </mxCell>
                <mxCell id="iGHPzRNiUI1LMutDav6r-7" value="" style="shape=ext;double=1;rounded=0;whiteSpace=wrap;html=1;" parent="iGHPzRNiUI1LMutDav6r-1" vertex="1">
                    <mxGeometry x="560" y="70" width="120" height="80" as="geometry"/>
                </mxCell>
                <mxCell id="iGHPzRNiUI1LMutDav6r-9" value="" style="shape=ext;double=1;rounded=0;whiteSpace=wrap;html=1;" parent="iGHPzRNiUI1LMutDav6r-1" vertex="1">
                    <mxGeometry x="560" y="180" width="120" height="80" as="geometry"/>
                </mxCell>
                <mxCell id="iGHPzRNiUI1LMutDav6r-10" value="" style="shape=ext;double=1;rounded=0;whiteSpace=wrap;html=1;" parent="iGHPzRNiUI1LMutDav6r-1" vertex="1">
                    <mxGeometry x="560" y="290" width="120" height="80" as="geometry"/>
                </mxCell>
            </root>
        </mxGraphModel>
    </diagram>
    <diagram id="3efabnWqekI8ctEiI_6D" name="Page-4">
        <mxGraphModel dx="981" dy="426" grid="1" gridSize="10" guides="1" tooltips="1" connect="1" arrows="1" fold="1" page="1" pageScale="1" pageWidth="850" pageHeight="1100" math="0" shadow="0">
            <root>
                <mxCell id="V42kInz2dlj37LrvxBWz-0"/>
                <mxCell id="V42kInz2dlj37LrvxBWz-1" parent="V42kInz2dlj37LrvxBWz-0"/>
                <mxCell id="V42kInz2dlj37LrvxBWz-2" value="" style="ellipse;whiteSpace=wrap;html=1;aspect=fixed;" vertex="1" parent="V42kInz2dlj37LrvxBWz-1">
                    <mxGeometry x="380" y="180" width="80" height="80" as="geometry"/>
                </mxCell>
                <mxCell id="V42kInz2dlj37LrvxBWz-3" value="" style="ellipse;whiteSpace=wrap;html=1;aspect=fixed;" vertex="1" parent="V42kInz2dlj37LrvxBWz-1">
                    <mxGeometry x="130" y="20" width="80" height="80" as="geometry"/>
                </mxCell>
                <mxCell id="V42kInz2dlj37LrvxBWz-4" value="" style="ellipse;whiteSpace=wrap;html=1;aspect=fixed;" vertex="1" parent="V42kInz2dlj37LrvxBWz-1">
                    <mxGeometry x="370" y="10" width="80" height="80" as="geometry"/>
                </mxCell>
                <mxCell id="V42kInz2dlj37LrvxBWz-5" value="" style="ellipse;whiteSpace=wrap;html=1;aspect=fixed;" vertex="1" parent="V42kInz2dlj37LrvxBWz-1">
                    <mxGeometry x="610" y="10" width="80" height="80" as="geometry"/>
                </mxCell>
                <mxCell id="V42kInz2dlj37LrvxBWz-6" value="" style="ellipse;whiteSpace=wrap;html=1;aspect=fixed;" vertex="1" parent="V42kInz2dlj37LrvxBWz-1">
                    <mxGeometry x="550" y="310" width="80" height="80" as="geometry"/>
                </mxCell>
                <mxCell id="V42kInz2dlj37LrvxBWz-7" value="" style="ellipse;whiteSpace=wrap;html=1;aspect=fixed;" vertex="1" parent="V42kInz2dlj37LrvxBWz-1">
                    <mxGeometry x="150" y="340" width="80" height="80" as="geometry"/>
                </mxCell>
                <mxCell id="V42kInz2dlj37LrvxBWz-8" value="" style="endArrow=classic;startArrow=classic;html=1;exitX=0.968;exitY=0.213;exitDx=0;exitDy=0;exitPerimeter=0;" edge="1" parent="V42kInz2dlj37LrvxBWz-1" source="V42kInz2dlj37LrvxBWz-2" target="V42kInz2dlj37LrvxBWz-5">
                    <mxGeometry width="50" height="50" relative="1" as="geometry">
                        <mxPoint x="500" y="180" as="sourcePoint"/>
                        <mxPoint x="450" y="200" as="targetPoint"/>
                        <Array as="points">
                            <mxPoint x="510" y="150"/>
                        </Array>
                    </mxGeometry>
                </mxCell>
                <mxCell id="V42kInz2dlj37LrvxBWz-9" value="" style="endArrow=classic;startArrow=classic;html=1;exitX=0.968;exitY=0.213;exitDx=0;exitDy=0;exitPerimeter=0;" edge="1" parent="V42kInz2dlj37LrvxBWz-1">
                    <mxGeometry width="50" height="50" relative="1" as="geometry">
                        <mxPoint x="219.99000000000007" y="353.78999999999996" as="sourcePoint"/>
                        <mxPoint x="380.0006611517311" y="229.9995277487635" as="targetPoint"/>
                        <Array as="points">
                            <mxPoint x="272.55" y="306.75"/>
                        </Array>
                    </mxGeometry>
                </mxCell>
                <mxCell id="V42kInz2dlj37LrvxBWz-10" value="" style="endArrow=classic;startArrow=classic;html=1;exitX=-0.044;exitY=0.413;exitDx=0;exitDy=0;exitPerimeter=0;" edge="1" parent="V42kInz2dlj37LrvxBWz-1" source="V42kInz2dlj37LrvxBWz-6">
                    <mxGeometry width="50" height="50" relative="1" as="geometry">
                        <mxPoint x="299.99" y="373.78999999999996" as="sourcePoint"/>
                        <mxPoint x="460.00066115173104" y="249.9995277487635" as="targetPoint"/>
                        <Array as="points">
                            <mxPoint x="500" y="310"/>
                        </Array>
                    </mxGeometry>
                </mxCell>
                <mxCell id="V42kInz2dlj37LrvxBWz-12" value="" style="endArrow=classic;startArrow=classic;html=1;" edge="1" parent="V42kInz2dlj37LrvxBWz-1" source="V42kInz2dlj37LrvxBWz-2">
                    <mxGeometry width="50" height="50" relative="1" as="geometry">
                        <mxPoint x="40" y="213.78999999999996" as="sourcePoint"/>
                        <mxPoint x="200.01066115173103" y="89.99952774876351" as="targetPoint"/>
                        <Array as="points">
                            <mxPoint x="290" y="160"/>
                        </Array>
                    </mxGeometry>
                </mxCell>
                <mxCell id="V42kInz2dlj37LrvxBWz-13" value="" style="endArrow=classic;startArrow=classic;html=1;entryX=0.5;entryY=1;entryDx=0;entryDy=0;" edge="1" parent="V42kInz2dlj37LrvxBWz-1" target="V42kInz2dlj37LrvxBWz-4">
                    <mxGeometry width="50" height="50" relative="1" as="geometry">
                        <mxPoint x="433.67162461998396" y="179.99767290153102" as="sourcePoint"/>
                        <mxPoint x="250.00066115173104" y="66.7595277487635" as="targetPoint"/>
                        <Array as="points">
                            <mxPoint x="410" y="137"/>
                        </Array>
                    </mxGeometry>
                </mxCell>
                <mxCell id="V42kInz2dlj37LrvxBWz-14" value="server" style="text;html=1;strokeColor=none;fillColor=none;align=center;verticalAlign=middle;whiteSpace=wrap;rounded=0;" vertex="1" parent="V42kInz2dlj37LrvxBWz-1">
                    <mxGeometry x="400" y="210" width="40" height="20" as="geometry"/>
                </mxCell>
                <mxCell id="V42kInz2dlj37LrvxBWz-15" value="client" style="text;html=1;strokeColor=none;fillColor=none;align=center;verticalAlign=middle;whiteSpace=wrap;rounded=0;" vertex="1" parent="V42kInz2dlj37LrvxBWz-1">
                    <mxGeometry x="170" y="370" width="40" height="20" as="geometry"/>
                </mxCell>
                <mxCell id="V42kInz2dlj37LrvxBWz-16" value="client" style="text;html=1;strokeColor=none;fillColor=none;align=center;verticalAlign=middle;whiteSpace=wrap;rounded=0;" vertex="1" parent="V42kInz2dlj37LrvxBWz-1">
                    <mxGeometry x="150" y="50" width="40" height="20" as="geometry"/>
                </mxCell>
                <mxCell id="V42kInz2dlj37LrvxBWz-17" value="client" style="text;html=1;strokeColor=none;fillColor=none;align=center;verticalAlign=middle;whiteSpace=wrap;rounded=0;" vertex="1" parent="V42kInz2dlj37LrvxBWz-1">
                    <mxGeometry x="560" y="340" width="40" height="20" as="geometry"/>
                </mxCell>
                <mxCell id="V42kInz2dlj37LrvxBWz-18" value="client" style="text;html=1;strokeColor=none;fillColor=none;align=center;verticalAlign=middle;whiteSpace=wrap;rounded=0;" vertex="1" parent="V42kInz2dlj37LrvxBWz-1">
                    <mxGeometry x="385" y="30" width="40" height="20" as="geometry"/>
                </mxCell>
                <mxCell id="V42kInz2dlj37LrvxBWz-19" value="client" style="text;html=1;strokeColor=none;fillColor=none;align=center;verticalAlign=middle;whiteSpace=wrap;rounded=0;" vertex="1" parent="V42kInz2dlj37LrvxBWz-1">
                    <mxGeometry x="630" y="30" width="40" height="20" as="geometry"/>
                </mxCell>
            </root>
        </mxGraphModel>
    </diagram>
</mxfile>